<svg id="visual" viewBox="0 0 900 900" width="900" height="900" xmlns="http://www.w3.org/2000/svg" xmlns:xlink="http://www.w3.org/1999/xlink" version="1.1"><g transform="translate(479.76666643016165 441.71513132680616)"><path d="M237.2 -287.8C292.6 -236.1 312.8 -147.4 327.1 -58.8C341.4 29.9 350 118.4 319.4 196.5C288.7 274.6 218.9 342.1 139.9 360.5C60.9 378.9 -27.2 348 -110.7 313.6C-194.2 279.1 -272.9 241.1 -327.5 175.2C-382.1 109.3 -412.6 15.6 -394.3 -66.3C-376 -148.1 -308.8 -218.1 -235 -266.5C-161.1 -315 -80.6 -342 5.1 -348.1C90.8 -354.3 181.7 -339.5 237.2 -287.8" fill="#DA9C00"></path></g></svg>